<svg xmlns="http://www.w3.org/2000/svg" width="47.5" height="41.16" viewBox="0 0 47.5 41.16">
  <g id="Icon" transform="translate(0.5 0.5)">
    <path id="Combined_Shape" data-name="Combined Shape" d="M26.8,40.16H19.7a5.54,5.54,0,0,1-3.868-1.582l-2.026-2a7.456,7.456,0,0,0-5.269-2.155H7.741A7.7,7.7,0,0,1,0,26.778L.007,7.64A7.7,7.7,0,0,1,7.747,0H38.76a7.738,7.738,0,0,1,5.474,2.24A7.548,7.548,0,0,1,46.5,7.646l-.008,19.137a7.7,7.7,0,0,1-7.739,7.64h-.8a7.552,7.552,0,0,0-5.274,2.16l-2.012,1.991A5.538,5.538,0,0,1,26.8,40.16ZM23.251,8.851a9.115,9.115,0,1,0,9.114,9.115A9.126,9.126,0,0,0,23.251,8.851Z" transform="translate(46.5 40.16) rotate(180)" fill="#fff" stroke="#b7b7b5" stroke-linecap="round" stroke-linejoin="round" stroke-miterlimit="10" stroke-width="1"/>
  </g>
</svg>
