<svg xmlns="http://www.w3.org/2000/svg" width="21.526" height="21.526" viewBox="0 0 21.526 21.526">
  <g id="Group_36650" data-name="Group 36650" transform="translate(0 0)">
    <path id="Path_36898" data-name="Path 36898" d="M1.649,10.326h1.12a.687.687,0,1,1,0,1.374H1.649a9.391,9.391,0,0,0,8.677,8.677v-1.12a.687.687,0,1,1,1.374,0v1.12A9.391,9.391,0,0,0,20.377,11.7h-1.12a.687.687,0,1,1,0-1.374h1.12A9.391,9.391,0,0,0,11.7,1.649v1.12a.687.687,0,1,1-1.374,0V1.649a9.391,9.391,0,0,0-8.677,8.677Zm-1.4.687A10.763,10.763,0,1,1,11.013,21.776,10.762,10.762,0,0,1,.25,11.013ZM11.013,5.746a.687.687,0,0,1,.687.687v4.25l4.322,3.457a.687.687,0,1,1-.857,1.074l-4.58-3.664a.687.687,0,0,1-.258-.537V6.433a.687.687,0,0,1,.687-.687Z" transform="translate(-0.25 -0.25)" fill="#484848" fill-rule="evenodd"/>
  </g>
</svg>
