<svg xmlns="http://www.w3.org/2000/svg" width="17.5" height="22.5" viewBox="0 0 17.5 22.5">
  <path id="Path_36674" data-name="Path 36674" d="M10.45,1.4a.75.75,0,0,0-1.191.486,12.879,12.879,0,0,1-3.187,6.48l-.037.046C4.658,10.165,3.25,11.97,3.25,15a8.75,8.75,0,1,0,17.5,0,9.192,9.192,0,0,0-2-5.614,11.112,11.112,0,0,0-1.359-1.47q-.308-.277-.64-.525l-.006-.005a.75.75,0,0,0-1.18.637,5.961,5.961,0,0,1-.03.616,8.882,8.882,0,0,1-.29,1.586,6.419,6.419,0,0,1-2.514,3.681l-.017.011a.315.315,0,0,1-.057-.328,15.416,15.416,0,0,0,1.03-5.9A8.054,8.054,0,0,0,10.45,1.4Zm6.482,8.16a10.5,10.5,0,0,1-.239,1.07,7.921,7.921,0,0,1-3.118,4.519,1.486,1.486,0,0,1-1.951-.2,1.812,1.812,0,0,1-.372-1.873,13.933,13.933,0,0,0,.939-5.308,6.678,6.678,0,0,0-1.718-4.337A15.08,15.08,0,0,1,7.281,9.254l-.066.084C5.842,11.085,4.75,12.53,4.75,15a7.25,7.25,0,1,0,14.5,0,7.7,7.7,0,0,0-1.686-4.7,9.628,9.628,0,0,0-.633-.74Z" transform="translate(-3.25 -1.25)" fill="#f68213" fill-rule="evenodd"/>
</svg>
