<svg xmlns="http://www.w3.org/2000/svg" width="20.259" height="24.983" viewBox="0 0 20.259 24.983">
  <g id="globe" transform="translate(0.532 0.641)">
    <g id="Group_36303" data-name="Group 36303" transform="translate(0 0)">
      <circle id="_Path_" data-name="&lt;Path&gt;" cx="8.329" cy="8.329" r="8.329" transform="translate(2.568 1.907)" fill="none" stroke="#484848" stroke-linecap="round" stroke-linejoin="round" stroke-width="1"/>
      <path id="_Path_2" data-name="&lt;Path&gt;" d="M11.354,1.658A10.893,10.893,0,1,0,18.8,22.131" transform="translate(-4.183 -1.658)" fill="none" stroke="#484848" stroke-linecap="round" stroke-linejoin="round" stroke-width="1"/>
      <path id="_Path_3" data-name="&lt;Path&gt;" d="M12.312,9.977c7.667-3.1,1.09,8.879-.24,6.546-.156-.279.173-2.376,0-2.728-.37-.769-1.53-.529-1.236-1.658.108-.416.255-1.068.255-1.068A7.919,7.919,0,0,1,8.014,8.646" transform="translate(-3.41 -0.249)" fill="none" stroke="#484848" stroke-linecap="round" stroke-linejoin="round" stroke-width="1"/>
      <path id="_Path_4" data-name="&lt;Path&gt;" d="M13.669,4.662c-.261.222-.59.652.064,1.081,2.811,1.848-3.113,2.449-3.623,3.987" transform="translate(-2.988 -1.052)" fill="none" stroke="#484848" stroke-linecap="round" stroke-linejoin="round" stroke-width="1"/>
      <path id="_Path_5" data-name="&lt;Path&gt;" d="M19.123,12.938c-.429-2.1-3.027-.878-3.088-3.2-.034-1.3,1.682-1.8,1.546-2.665-.047-.314-.467-.453-.622-.708a.383.383,0,0,1-.036-.074" transform="translate(-1.793 -0.723)" fill="none" stroke="#484848" stroke-linecap="round" stroke-linejoin="round" stroke-width="1"/>
      <path id="Path_36106" data-name="Path 36106" d="M13.5,21.7V20.5" transform="translate(-2.304 2.14)" fill="none" stroke="#484848" stroke-linecap="round" stroke-linejoin="round" stroke-width="1"/>
      <path id="Path_36107" data-name="Path 36107" d="M10,21.5h8.411" transform="translate(-3.01 2.342)" fill="none" stroke="#484848" stroke-linecap="round" stroke-linejoin="round" stroke-width="1"/>
    </g>
  </g>
</svg>
