<svg id="Instagram-Glyph-Color-Logo.wine" xmlns="http://www.w3.org/2000/svg" xmlns:xlink="http://www.w3.org/1999/xlink" width="21.723" height="21.723" viewBox="0 0 21.723 21.723">
  <defs>
    <linearGradient id="linear-gradient" x1="-5.807" y1="6.806" x2="1.753" y2="-0.753" gradientUnits="objectBoundingBox">
      <stop offset="0" stop-color="#ffd521"/>
      <stop offset="0.05" stop-color="#ffd521"/>
      <stop offset="0.501" stop-color="#f50000"/>
      <stop offset="0.95" stop-color="#b900b4"/>
      <stop offset="1" stop-color="#b900b4"/>
    </linearGradient>
    <linearGradient id="linear-gradient-2" x1="0.009" y1="0.991" x2="0.917" y2="0.082" xlink:href="#linear-gradient"/>
    <linearGradient id="linear-gradient-3" x1="-0.456" y1="1.456" x2="1.313" y2="-0.313" xlink:href="#linear-gradient"/>
  </defs>
  <path id="Path_36894" data-name="Path 36894" d="M2.615-5.228a1.3,1.3,0,0,0-1.3-1.3,1.305,1.305,0,0,0-1.3,1.3,1.3,1.3,0,0,0,1.3,1.3,1.3,1.3,0,0,0,1.3-1.3" transform="translate(15.349 10.292)" fill="url(#linear-gradient)"/>
  <path id="Path_36895" data-name="Path 36895" d="M19.7-38.754a6.059,6.059,0,0,1-.373,2.017,3.355,3.355,0,0,1-.815,1.249,3.319,3.319,0,0,1-1.247.811,6.041,6.041,0,0,1-2.019.377c-1.145.05-1.484.061-4.388.061S7.618-34.25,6.473-34.3a6.021,6.021,0,0,1-2.016-.377,3.322,3.322,0,0,1-1.249-.811,3.311,3.311,0,0,1-.813-1.249,5.988,5.988,0,0,1-.373-2.017c-.056-1.145-.066-1.49-.066-4.387s.01-3.245.066-4.39a6.028,6.028,0,0,1,.373-2.019A3.305,3.305,0,0,1,3.207-50.8a3.36,3.36,0,0,1,1.249-.813,6.022,6.022,0,0,1,2.016-.375c1.145-.05,1.487-.063,4.388-.063s3.243.013,4.388.063a6.042,6.042,0,0,1,2.019.375,3.356,3.356,0,0,1,1.247.813,3.35,3.35,0,0,1,.815,1.246,6.1,6.1,0,0,1,.373,2.019c.053,1.145.066,1.487.066,4.39S19.755-39.9,19.7-38.754Zm1.956-8.867a7.894,7.894,0,0,0-.507-2.637A5.294,5.294,0,0,0,19.9-52.183a5.341,5.341,0,0,0-1.923-1.252,7.918,7.918,0,0,0-2.637-.5C14.181-53.994,13.812-54,10.86-54s-3.321.01-4.479.066a7.949,7.949,0,0,0-2.637.5,5.354,5.354,0,0,0-1.92,1.252A5.337,5.337,0,0,0,.57-50.257,8.031,8.031,0,0,0,.063-47.62C.013-46.463,0-46.092,0-43.141s.013,3.318.063,4.476A8.065,8.065,0,0,0,.57-36.027,5.327,5.327,0,0,0,1.824-34.1a5.354,5.354,0,0,0,1.92,1.254,8.018,8.018,0,0,0,2.637.5c1.158.053,1.53.066,4.479.066s3.321-.013,4.479-.066a7.986,7.986,0,0,0,2.637-.5A5.34,5.34,0,0,0,19.9-34.1a5.284,5.284,0,0,0,1.251-1.923,7.927,7.927,0,0,0,.507-2.637c.053-1.158.066-1.528.066-4.476s-.013-3.322-.066-4.48Z" transform="translate(0 54.004)" fill="url(#linear-gradient-2)"/>
  <path id="Path_36896" data-name="Path 36896" d="M5.636-18.619a3.619,3.619,0,0,1-3.62-3.617,3.621,3.621,0,0,1,3.62-3.623,3.623,3.623,0,0,1,3.623,3.623,3.621,3.621,0,0,1-3.623,3.617Zm0-9.2A5.579,5.579,0,0,0,.06-22.236a5.576,5.576,0,0,0,5.576,5.576,5.578,5.578,0,0,0,5.578-5.576,5.581,5.581,0,0,0-5.578-5.581Z" transform="translate(5.225 33.099)" fill="url(#linear-gradient-3)"/>
</svg>
