<svg xmlns="http://www.w3.org/2000/svg" width="26.051" height="18.893" viewBox="0 0 26.051 18.893">
  <g id="laptop-education" transform="translate(-1 -4)">
    <g id="Group_36448" data-name="Group 36448" transform="translate(1.5 4.5)">
      <path id="Path_36864" data-name="Path 36864" d="M12.868,12.137,7.5,9.58l5.368-2.556L18.236,9.58Z" transform="translate(-0.343 -4.013)" fill="none" stroke="#fff" stroke-linecap="round" stroke-linejoin="round" stroke-width="1"/>
      <path id="Path_36865" data-name="Path 36865" d="M15.346,10.667l.21,2.1a1.312,1.312,0,0,1-.414,1.133,5.264,5.264,0,0,1-5.293,0,1.318,1.318,0,0,1-.413-1.133l.21-2.1" transform="translate(0.029 -3.31)" fill="none" stroke="#fff" stroke-linecap="round" stroke-linejoin="round" stroke-width="1"/>
      <path id="Path_36866" data-name="Path 36866" d="M3.5,17.025V6.886A2.386,2.386,0,0,1,5.886,4.5H21.393a2.386,2.386,0,0,1,2.386,2.386v10.14" transform="translate(-1.114 -4.5)" fill="none" stroke="#fff" stroke-linecap="round" stroke-linejoin="round" stroke-width="1" fill-rule="evenodd"/>
      <path id="Path_36867" data-name="Path 36867" d="M18.23,16.5h8.32c0,1.318-1.193,3.579-5.023,3.579h-15c-3.83,0-5.023-2.261-5.023-3.579H9.82a1.185,1.185,0,0,1,.688.219l1.074.754a1.185,1.185,0,0,0,.688.219H15.79a1.185,1.185,0,0,0,.688-.219l1.074-.754a1.185,1.185,0,0,1,.679-.219Z" transform="translate(-1.5 -2.185)" fill="none" stroke="#fff" stroke-linecap="round" stroke-linejoin="round" stroke-width="1" fill-rule="evenodd"/>
    </g>
  </g>
</svg>
