<svg xmlns="http://www.w3.org/2000/svg" width="15.003" height="22.579" viewBox="0 0 15.003 22.579">
  <g id="paper-plane" transform="translate(-4.5 -1.097)">
    <g id="Group_36614" data-name="Group 36614">
      <path id="Path_36891" data-name="Path 36891" d="M11.376,10.743l5.93,3.413a.359.359,0,0,0,.536-.276L19,2a.359.359,0,0,0-.529-.349L5.186,8.934A.359.359,0,0,0,5.3,9.6l4.822.857" fill="none" stroke="#111" stroke-linecap="round" stroke-linejoin="round" stroke-width="1"/>
      <path id="Path_36892" data-name="Path 36892" d="M16.755,4.409l-5.379,6.334.61,3.587a.217.217,0,0,0,.406.066l.654-1.232" fill="none" stroke="#111" stroke-linecap="round" stroke-linejoin="round" stroke-width="1"/>
      <path id="Path_36893" data-name="Path 36893" d="M9.813,12.722C8.271,14.079,2.75,21.85,11.932,19.3c4-1.11,9.506-.059,3.193,3.691" fill="none" stroke="#111" stroke-linecap="round" stroke-linejoin="round" stroke-width="1" stroke-dasharray="1 2"/>
    </g>
  </g>
</svg>
